<svg width="20" height="20" xmlns="http://www.w3.org/2000/svg">
 <g>
  <title>background</title>
  <rect x="-1" y="-1" width="22" height="22" id="canvas_background" fill="none"/>
 </g>

 <g>
  <title>Layer 1</title>
  <metadata transform="matrix(0.011377778328789612,0,0,0.011377778328789612,0,0) ">Svg Vector Icons : http://www.onlinewebfonts.com/icon</metadata>
  <metadata transform="matrix(0.011377778328789612,0,0,0.011377778328789612,0,0) ">Svg Vector Icons : http://www.onlinewebfonts.com/icon</metadata>
  <g stroke="null" id="svg_420">
   <g stroke="null" transform="matrix(0.03322362461187257,0,0,0.03322362461187257,0.5675855823946246,11.858335520779143) " id="svg_418">
    <title stroke="null" transform="translate(0,-1.8811914920806885) translate(0,1.8811914920806885) translate(0,1.8811914920806885) translate(0,1.8811914920806885) translate(1.8811914920806885,5.684341886080802e-14) translate(0,1.8811914920806885) translate(0,1.8811914920806885) translate(0,1.8811914920806885) translate(0,1.8811914920806885) translate(0,1.8811914920806885) translate(0,1.8811914920806885) translate(0,1.8811914920806885) translate(28.217872619628906,3.762382984161377) translate(-41.998863220214844,-333.8909606933594) translate(118.08000183105469,154.0800018310547) translate(-75.60000610351562,0) translate(0,-165.59999084472656) ">background</title>
    <rect stroke="null" x="29.580197" y="-325.717843" width="614" height="794" id="svg_416" fill="none"/>
   </g>
   <g stroke="null" transform="matrix(0.03322362461187257,0,0,0.03322362461187257,0.5675855823946246,11.858335520779143) " id="svg_419">
    <title stroke="null" transform="translate(0,-1.8811914920806885) translate(0,1.8811914920806885) translate(0,1.8811914920806885) translate(0,1.8811914920806885) translate(1.8811914920806885,5.684341886080802e-14) translate(0,1.8811914920806885) translate(0,1.8811914920806885) translate(0,1.8811914920806885) translate(0,1.8811914920806885) translate(0,1.8811914920806885) translate(0,1.8811914920806885) translate(0,1.8811914920806885) translate(28.217872619628906,3.762382984161377) translate(-41.998863220214844,-333.8909606933594) translate(118.08000183105469,154.0800018310547) translate(-75.60000610351562,0) translate(0,-165.59999084472656) ">Layer 1</title>
    <path stroke="null" d="m516.986197,-138.576843c14.063,-10.563 25.594,-4.782 25.594,12.812l0,288c0,17.594 -11.531,23.375 -25.594,12.813l-76.813,-57.625c-14.062,-10.563 -25.593,-33.594 -25.593,-51.188l0,-96c0,-17.594 11.531,-40.625 25.594,-51.188l76.812,-57.624zm-422.406,-147.188c-35.344,0 -64,28.656 -64,64s28.656,64 64,64s64,-28.656 64,-64s-28.656,-64 -64,-64zm192,-32c-44.188,0 -80,35.813 -80,80s35.813,80 80,80s80,-35.813 80,-80s-35.812,-80 -80,-80zm-128,256l224,0l0,192c0,17.688 -14.313,32 -32,32l-288,0c-17.688,0 -32,-14.313 -32,-32l0,-224c0,-17.688 14.313,-32 32,-32l288,0c17.688,0 32,14.313 32,32l-224,0l0,32zm0,128c0,-17.688 -14.313,-32 -32,-32s-32,14.313 -32,32s14.313,32 32,32s32,-14.312 32,-32z" id="svg_415" fill="#ffffff"/>
   </g>
  </g>
 </g>
</svg>