<svg width="20" height="20" xmlns="http://www.w3.org/2000/svg">
 <g>
  <title>background</title>
  <rect x="-1" y="-1" width="22" height="22" id="canvas_background" fill="none"/>
 </g>

 <g>
  <title>Layer 1</title>
  <metadata transform="matrix(0.011377778328789612,0,0,0.011377778328789612,0,0) ">Svg Vector Icons : http://www.onlinewebfonts.com/icon</metadata>
  <metadata transform="matrix(0.011377778328789612,0,0,0.011377778328789612,0,0) ">Svg Vector Icons : http://www.onlinewebfonts.com/icon</metadata>
  <g stroke="null" id="svg_340">
   <g stroke="null" transform="matrix(0.038248135747104305,0,0,0.038248135747104305,-0.3123711870972983,-0.05016494339167821) " id="svg_338">
    <title stroke="null" transform="translate(78.43519592285156,26.145065307617188) translate(-59.599998474121094,0) translate(0,-8.7319974899292) ">background</title>
    <rect stroke="null" x="17.835197" y="16.413068" width="582" height="402" id="svg_336" fill="none"/>
   </g>
   <g stroke="null" transform="matrix(0.038248135747104305,0,0,0.038248135747104305,-0.3123711870972983,-0.05016494339167821) " id="svg_339">
    <title stroke="null" transform="translate(78.43519592285156,26.145065307617188) translate(-59.599998474121094,0) translate(0,-8.7319974899292) ">Layer 1</title>
    <g stroke="null" id="svg_331">
     <circle stroke="null" cx="130.943197" cy="91.516068" r="51.103001" id="svg_335" fill="#ffffff"/>
     <path stroke="null" d="m418.251197,40.413068c28.225,0 51.101,22.88 51.101,51.103s-22.876,51.103 -51.101,51.103c-28.226,0 -51.105,-22.88 -51.105,-51.103s22.879,-51.103 51.105,-51.103z" id="svg_334" fill="#ffffff"/>
     <path stroke="null" d="m456.600197,137.273068c-10.061,9.395 -23.525,15.191 -38.349,15.191c-14.828,0 -28.288,-5.801 -38.348,-15.191c-21.79,5.752 -39.12,22.469 -45.777,43.851c-18.825,-3.47 -38.82,-5.351 -59.529,-5.351c-20.711,0 -40.702,1.881 -59.528,5.351c-6.653,-21.382 -23.992,-38.099 -45.773,-43.851c-10.065,9.39 -23.525,15.186 -38.352,15.186c-14.822,0 -28.285,-5.796 -38.348,-15.186c-28.019,7.401 -48.761,32.888 -48.761,63.193l0,53.042l0.134,0.821l3.658,1.143c11.403,3.562 22.259,6.273 32.64,8.396c-4.784,10.254 -7.396,21.049 -7.396,32.202c0,48.162 47.725,89.778 116.428,108.976c-2.536,6.956 -3.944,14.451 -3.944,22.277l0,53.041l0.137,0.823l3.655,1.144c34.426,10.758 64.342,14.346 88.966,14.346c48.09,0 75.958,-13.717 77.678,-14.587l3.42,-1.726l0.362,0l0,-53.041c0,-7.438 -1.259,-14.571 -3.556,-21.233c70.78,-18.699 120.306,-60.967 120.306,-110.02c0,-10.623 -2.35,-20.924 -6.703,-30.735c19.754,-4.087 30.885,-9.555 31.949,-10.098l3.426,-1.733l0.361,0.005l0,-53.042c0.004,-30.306 -20.736,-55.793 -48.756,-63.194zm5.785,158.795c0,43.457 -46.279,80.887 -112.365,97.373c-8.701,-14.241 -22.66,-24.952 -39.198,-29.311c-10.065,9.389 -23.53,15.185 -38.352,15.185c-14.817,0 -28.285,-5.796 -38.351,-15.185c-16.171,4.27 -29.891,14.598 -38.624,28.366c-64.116,-16.942 -108.68,-53.791 -108.68,-96.429c0,-10.287 2.641,-20.231 7.477,-29.645c15.438,2.405 29.584,3.394 42.299,3.394c48.086,0 75.96,-13.711 77.678,-14.582l3.42,-1.733l0.367,0.005l0,-53.046c0,-1.94 -0.092,-3.869 -0.26,-5.765c17.931,-3.234 37.008,-4.988 56.801,-4.988c19.797,0 38.879,1.754 56.808,4.988c-0.168,1.901 -0.263,3.824 -0.263,5.77l0,53.042l0.137,0.826l3.661,1.143c34.42,10.748 64.34,14.341 88.955,14.341c11.813,0 22.383,-0.826 31.666,-2.093c4.417,9.035 6.824,18.53 6.824,28.344z" id="svg_333" fill="#ffffff"/>
     <circle stroke="null" cx="272.470197" cy="318.374068" r="51.101002" id="svg_332" fill="#ffffff"/>
    </g>
   </g>
  </g>
 </g>
</svg>