<svg width="20" height="20" xmlns="http://www.w3.org/2000/svg">
 <g>
  <title>background</title>
  <rect x="-1" y="-1" width="22" height="22" id="canvas_background" fill="none"/>
 </g>

 <g>
  <title>Layer 1</title>
  <metadata transform="matrix(0.011377778328789612,0,0,0.011377778328789612,0,0) ">Svg Vector Icons : http://www.onlinewebfonts.com/icon</metadata>
  <metadata transform="matrix(0.011377778328789612,0,0,0.011377778328789612,0,0) ">Svg Vector Icons : http://www.onlinewebfonts.com/icon</metadata>
  <g stroke="null" id="svg_386">
   <g stroke="null" transform="matrix(0.030638894042006575,0,0,0.035009455827130116,-0.4093031959636419,1.1391155838771763) " id="svg_384">
    <title stroke="null" transform="translate(59.15683364868164,55.34218978881836) translate(-30.335506439208984,-26.548437118530273) translate(21.170978546142578,40.41732406616211) translate(-21.53489112854004,-43.06978225708008) translate(-241.19647216796875,-427.2623291015625) translate(260.1882019042969,0) translate(0,258.334228515625) ">background</title>
    <rect stroke="null" x="46.449144" y="-143.786806" width="582" height="402" id="svg_382" fill="none"/>
   </g>
   <g stroke="null" transform="matrix(0.030638894042006575,0,0,0.035009455827130116,-0.4093031959636419,1.1391155838771763) " id="svg_385">
    <title stroke="null" transform="translate(59.15683364868164,55.34218978881836) translate(-30.335506439208984,-26.548437118530273) translate(21.170978546142578,40.41732406616211) translate(-21.53489112854004,-43.06978225708008) translate(-241.19647216796875,-427.2623291015625) translate(260.1882019042969,0) translate(0,258.334228515625) ">Layer 1</title>
    <path stroke="null" d="m509.509144,307.681194c8.16,4.08 12.24,11.018 12.24,20.81l0,78.946l0,14.076c0,6.12 -1.836,11.424 -5.508,15.912s-8.364,6.732 -14.076,6.732l-300.492,0c-5.304,0 -9.792,-2.244 -13.464,-6.732c-3.672,-4.488 -5.508,-9.792 -5.508,-15.912l0,-14.076l0,-78.946c0,-9.792 4.08,-16.729 12.24,-20.81l84.456,-39.168l33.048,-15.3c-15.504,-9.384 -27.336,-22.848 -35.496,-40.392c-7.752,-15.504 -11.628,-32.028 -11.628,-49.572c0,-5.304 0.408,-10.404 1.224,-15.3c0.816,-4.896 1.836,-9.588 3.06,-14.076c5.712,-20.808 16.014,-37.944 30.906,-51.408s32.13,-20.196 51.714,-20.196c19.992,0 37.537,6.936 52.632,20.808s25.296,31.416 30.6,52.632c2.04,10.2 3.062,19.38 3.062,27.54c0,16.32 -3.266,32.028 -9.792,47.124c-8.16,18.36 -19.992,32.232 -35.496,41.616l34.884,16.524l81.394,39.168l0,0zm-326.808,-25.704c-8.976,4.08 -16.014,10.304 -21.114,18.666c-5.1,8.364 -7.65,17.646 -7.65,27.848l0,78.946l-63.036,0c-4.488,0 -8.16,-1.732 -11.016,-5.2c-2.856,-3.47 -4.284,-7.854 -4.284,-13.158l0,-74.666c0,-8.978 3.264,-14.688 9.792,-17.136l94.86,-44.064c-11.424,-6.936 -20.604,-16.83 -27.54,-29.682s-10.404,-27.234 -10.404,-43.146c0,-11.016 1.836,-21.522 5.508,-31.518c3.672,-9.996 8.67,-18.666 14.994,-26.01c6.324,-7.344 13.668,-13.158 22.032,-17.442c8.364,-4.284 17.442,-6.426 27.234,-6.426c6.528,0 12.648,1.02 18.36,3.06c5.712,2.04 11.22,4.692 16.524,7.956c-6.936,17.136 -10.404,34.884 -10.404,53.244c0,14.28 2.04,28.05 6.12,41.31c4.08,13.26 9.792,25.194 17.136,35.802c-4.488,4.896 -9.18,8.772 -14.076,11.628l-63.036,29.988zm438.192,15.3c6.526,3.264 9.792,8.976 9.792,17.136l0,74.664c0,5.304 -1.43,9.688 -4.284,13.158c-2.856,3.468 -6.528,5.2 -11.018,5.2l-64.871,0l0,-78.946c0,-10.2 -2.551,-19.482 -7.649,-27.848c-5.101,-8.362 -11.935,-14.586 -20.502,-18.666l-60.588,-28.762c-5.712,-3.264 -11.222,-7.956 -16.524,-14.076c6.938,-10.608 12.342,-22.338 16.218,-35.19s5.814,-26.418 5.814,-40.698c0,-9.384 -0.816,-18.36 -2.448,-26.928s-4.08,-16.932 -7.344,-25.092c5.304,-3.672 11.016,-6.63 17.136,-8.874s12.444,-3.366 18.974,-3.366c9.792,0 18.972,2.142 27.538,6.426c8.568,4.284 16.016,10.098 22.34,17.442c6.322,7.344 11.32,16.014 14.992,26.01c3.674,9.996 5.51,20.502 5.51,31.518c0,15.504 -3.47,29.682 -10.404,42.534c-6.938,12.852 -15.708,22.746 -26.316,29.682l93.634,44.676l0,0z" id="svg_381" fill="#ffffff"/>
   </g>
  </g>
 </g>
</svg>