<svg width="20" height="20" xmlns="http://www.w3.org/2000/svg">
 <g>
  <title>background</title>
  <rect x="-1" y="-1" width="22" height="22" id="canvas_background" fill="none"/>
 </g>

 <g>
  <title>Layer 1</title>
  <metadata transform="matrix(0.011377778328789612,0,0,0.011377778328789612,0,0) ">Svg Vector Icons : http://www.onlinewebfonts.com/icon</metadata>
  <metadata transform="matrix(0.011377778328789612,0,0,0.011377778328789612,0,0) ">Svg Vector Icons : http://www.onlinewebfonts.com/icon</metadata>
  <g stroke="null" id="svg_366">
   <g stroke="null" transform="matrix(0.055289075050533376,0,0,0.055289075050533376,0.3507826194080792,0.409753946018526) " id="svg_364">
    <title stroke="null" transform="translate(-12.43464469909668,9.043377876281738) translate(29.109375,-70.875) translate(-87.50004577636719,0) translate(0,2.499955892562866) ">background</title>
    <rect stroke="null" x="-71.825315" y="-60.331666" width="582" height="402" id="svg_362" fill="none"/>
   </g>
   <g stroke="null" transform="matrix(0.055289075050533376,0,0,0.055289075050533376,0.3507826194080792,0.409753946018526) " id="svg_365">
    <title stroke="null" transform="translate(-12.43464469909668,9.043377876281738) translate(29.109375,-70.875) translate(-87.50004577636719,0) translate(0,2.499955892562866) ">Layer 1</title>
    <g stroke="null" id="svg_358">
     <path stroke="null" d="m281.252685,50.754334c0,-7.172 -5.828,-12.969 -12.969,-12.969l-24.82,0c-7.156,0 -12.969,5.797 -12.969,12.969l0,5.578l50.758,50.766l0,-56.344z" id="svg_361" fill="#ffffff"/>
     <polygon stroke="null" points="70.7686939239502,194.6453676223755 70.7686939239502,320.92634296417236 140.78367805480957,320.92634296417236 140.78367805480957,222.5903444290161 210.39367866516113,222.5903444290161 210.39367866516113,320.92634296417236 281.25267219543457,320.92634296417236 281.25267219543457,196.11335468292236 175.26867866516113,90.13732624053955 " id="svg_360" fill="#ffffff"/>
     <path stroke="null" d="m340.518685,180.426334l-156.211,-156.211c-5.078,-5.07 -13.281,-5.07 -18.352,0l-12.078,12.078c-0.195,0.195 -0.242,0.445 -0.422,0.641l-143.625,143.625c-5.055,5.07 -5.055,13.281 0,18.336l12.078,12.086c5.07,5.07 13.281,5.07 18.344,0l134.984,-134.985l134.844,134.852c5.062,5.062 13.281,5.062 18.336,0l12.086,-12.086c5.07,-5.055 5.07,-13.258 0.016,-18.336z" id="svg_359" fill="#ffffff"/>
    </g>
   </g>
  </g>
 </g>
</svg>