<svg width="20" height="20" xmlns="http://www.w3.org/2000/svg">
 <g>
  <title>background</title>
  <rect x="-1" y="-1" width="22" height="22" id="canvas_background" fill="none"/>
 </g>

 <g>
  <title>Layer 1</title>
  <metadata transform="matrix(0.011377778328789612,0,0,0.011377778328789612,0,0) ">Svg Vector Icons : http://www.onlinewebfonts.com/icon</metadata>
  <metadata transform="matrix(0.011377778328789612,0,0,0.011377778328789612,0,0) ">Svg Vector Icons : http://www.onlinewebfonts.com/icon</metadata>
  <g stroke="null" id="svg_322">
   <g stroke="null" transform="matrix(0.028977749125360525,0,0,0.028977749125360525,2.1612079558893145,3.265768100747411) " id="svg_320">
    <title stroke="null" transform="translate(-2.156827211380005,-12.940963745117188) translate(-104.64210510253906,-94.907958984375) translate(-593.26171875,-648.1932983398438) translate(491.05615234375,0) translate(0,481.4061584472656) ">background</title>
    <rect stroke="null" x="-210.004499" y="-275.636063" width="582" height="402" id="svg_318" fill="none"/>
   </g>
   <g stroke="null" transform="matrix(0.028977749125360525,0,0,0.028977749125360525,2.1612079558893145,3.265768100747411) " id="svg_321">
    <title stroke="null" transform="translate(-2.156827211380005,-12.940963745117188) translate(-104.64210510253906,-94.907958984375) translate(-593.26171875,-648.1932983398438) translate(491.05615234375,0) translate(0,481.4061584472656) ">Layer 1</title>
    <g stroke="null" id="svg_315">
     <path stroke="null" d="m491.735394,152.97825c1.61363,-11.235644 2.749147,-22.65058 2.749147,-34.304572c0,-5.319002 -0.597641,-10.518475 -0.956225,-15.777713c45.59998,37.95018 74.167203,91.379253 74.167203,150.724968c0,66.636931 -35.918202,125.803353 -91.498781,163.873062l0,103.869942l-102.614897,-63.170615c-14.223847,2.330798 -28.806279,3.705372 -43.807058,3.705372c-70.461831,0 -115.284878,-26.953593 -158.85288,-69.56537c7.171688,0.418348 14.283611,0.956225 21.574827,0.956225c10.219655,0 20.319782,-0.478113 30.30038,-1.314809c238.458613,-0.119528 260.63108,-158.55406 268.938285,-238.996489l-0.000001,-0.000001z" id="svg_317" fill="#ffffff"/>
     <path stroke="null" d="m238.216237,-64.323884c-131.540703,0 -237.920736,93.231939 -237.920736,208.217997c0,66.636931 25.399727,123.173735 73.210978,163.873062l0,103.810178l103.152773,-59.704299c14.223847,2.330798 46.556205,4.781125 61.556985,4.781125l0,0c131.421175,0 219.632933,-97.774008 219.632933,-212.760066c0,-114.986058 -110.204933,-208.217997 -219.632933,-208.217997zm-118.930486,237.920736c-15.180072,0 -27.431705,-12.251633 -27.431705,-27.431705c0,-15.180072 12.311397,-27.431705 27.431705,-27.431705c15.180072,0 27.431705,12.311397 27.431705,27.431705c0,15.180072 -12.311397,27.431705 -27.431705,27.431705zm109.786584,0c-15.180072,0 -27.431705,-12.251633 -27.431705,-27.431705c0,-15.180072 12.311397,-27.431705 27.431705,-27.431705c15.180072,0 27.431705,12.311397 27.431705,27.431705c0.059764,15.180072 -12.251633,27.431705 -27.431705,27.431705zm109.846348,0c-15.180072,0 -27.431705,-12.251633 -27.431705,-27.431705c0,-15.180072 12.311397,-27.431705 27.431705,-27.431705c15.180072,0 27.431705,12.311397 27.431705,27.431705c0,15.180072 -12.311397,27.431705 -27.431705,27.431705z" id="svg_316" fill="#ffffff"/>
    </g>
   </g>
  </g>
 </g>
</svg>