<svg width="23" height="23" xmlns="http://www.w3.org/2000/svg">
 <g>
  <title>background</title>
  <rect x="-1" y="-1" width="25" height="25" id="canvas_background" fill="none"/>
 </g>

 <g>
  <title>Layer 1</title>
  <path d="m305,512" id="svg_1"/>
  <line x1="305" y1="512" x2="368" y2="512" id="svg_2"/>
  <g stroke="null" id="svg_3">
   <path stroke="null" fill="#666666" d="m11.5,14.498099c1.852927,0 3.35625,-1.341932 3.35625,-2.998099l0,-4.996827c0,-1.655701 -1.503323,-2.998099 -3.35625,-2.998099c-1.853489,0 -3.35625,1.342399 -3.35625,2.998099l0,4.996827c0,1.656167 1.502761,2.998099 3.35625,2.998099z" id="svg_4"/>
   <path stroke="null" fill="#666666" d="m16.534372,9.501272c-0.309194,0 -0.559372,0.223476 -0.559372,0.499682l0,1.499046c0,2.207596 -2.003717,3.997463 -4.475,3.997463s-4.475,-1.789895 -4.475,-3.997463l0,-1.499046c0,-0.276206 -0.250184,-0.499682 -0.559378,-0.499682s-0.559372,0.223476 -0.559372,0.499682l0,1.499046c0,2.428147 1.940334,4.448367 4.509961,4.899235l0,1.246269c-1.009501,0.281075 -1.851851,0.947652 -2.272461,1.849424l2.2375,0c0,-0.552397 0.500916,-0.999364 1.11875,-0.999364s1.11875,0.446995 1.11875,0.999364l2.2375,0c-0.410795,-0.880315 -1.224717,-1.533217 -2.202539,-1.825995l0,-1.280439c2.53575,-0.475264 4.440039,-2.481802 4.440039,-4.888492l0,-1.499046c0,-0.276206 -0.250184,-0.499682 -0.559378,-0.499682z" id="svg_5"/>
  </g>
 </g>
</svg>