<?xml version="1.0" encoding="UTF-8"?>
<!DOCTYPE svg PUBLIC "-//W3C//DTD SVG 1.1//EN" "http://www.w3.org/Graphics/SVG/1.1/DTD/svg11.dtd">
<!-- Creator: CorelDRAW X7 -->
<svg xmlns="http://www.w3.org/2000/svg" xml:space="preserve" width="0.166701in" height="0.374854in" version="1.1" style="shape-rendering:geometricPrecision; text-rendering:geometricPrecision; image-rendering:optimizeQuality; fill-rule:evenodd; clip-rule:evenodd"
viewBox="0 0 167 375"
 xmlns:xlink="http://www.w3.org/1999/xlink">
 <defs>
  <style type="text/css">
   <![CDATA[
    .fil0 {fill:#FEFEFE}
    .fil1 {fill:#C3CACF}
   ]]>
  </style>
 </defs>
 <g id="Layer_x0020_1">
  <metadata id="CorelCorpID_0Corel-Layer"/>
  <g>
   <path class="fil0" d="M145 56l0 -56 -125 0 0 56c-11,2 -20,13 -20,25l0 60c0,14 11,26 26,26l115 0c14,0 26,-12 26,-26l0 -60c0,-13 -9,-23 -22,-25l0 0zm-114 -46l104 0 0 11 -104 0 0 -11 0 0zm0 21l104 0 0 11 -104 0 0 -11 0 0zm0 21l104 0 0 11 -104 0 0 -11 0 0zm20 31l-10 -10 84 0 -11 10 -63 0 0 0zm53 11l-11 10 -21 0 -10 -10 42 0 0 0zm51 57l-2 2c-2,2 -4,2 -6,0l-35 -37 -23 24 -3 2c-1,1 -2,2 -3,2 -1,0 -2,-1 -2,-2l-3 -2 -22 -22 -37 34c-1,2 -3,2 -5,0l-2 -2c-2,-2 -2,-4 0,-5l36 -35 -32 -33c-2,-1 -2,-4 0,-5l2 -3c2,-1 4,-1 5,0l60 60 60 -60c2,-1 4,-1 6,0l2 3c2,1 2,4 0,5l-31 32 35 37c2,1 2,3 0,5l0 0zm0 0l0 0 0 0z"/>
  </g>
  <g>
   <path class="fil1" d="M145 264l0 -56 -125 0 0 56c-11,3 -20,13 -20,25l0 60c0,14 11,26 26,26l115 0c14,0 26,-12 26,-26l0 -60c0,-12 -9,-23 -22,-25l0 0zm-114 -45l104 0 0 10 -104 0 0 -10 0 0zm0 21l104 0 0 10 -104 0 0 -10 0 0zm0 20l104 0 0 11 -104 0 0 -11 0 0zm20 32l-10 -11 84 0 -11 11 -63 0 0 0zm53 10l-11 10 -21 0 -10 -10 42 0 0 0zm51 57l-2 3c-2,1 -4,1 -6,0l-35 -37 -23 23 -3 3c-1,1 -2,1 -3,1 -1,0 -2,0 -2,-1l-3 -3 -22 -22 -37 35c-1,1 -3,1 -5,0l-2 -3c-2,-1 -2,-4 0,-5l36 -35 -32 -32c-2,-2 -2,-4 0,-6l2 -2c2,-2 4,-2 5,0l60 60 60 -60c2,-2 4,-2 6,0l2 2c2,2 2,4 0,6l-31 31 35 37c2,1 2,4 0,5l0 0zm0 0l0 0 0 0z"/>
  </g>
 </g>
</svg>
