<?xml version="1.0" encoding="UTF-8"?>
<!DOCTYPE svg PUBLIC "-//W3C//DTD SVG 1.1//EN" "http://www.w3.org/Graphics/SVG/1.1/DTD/svg11.dtd">
<!-- Creator: CorelDRAW X7 -->
<svg xmlns="http://www.w3.org/2000/svg" xml:space="preserve" width="0.166697in" height="0.319512in" version="1.1" style="shape-rendering:geometricPrecision; text-rendering:geometricPrecision; image-rendering:optimizeQuality; fill-rule:evenodd; clip-rule:evenodd"
viewBox="0 0 164 314"
 xmlns:xlink="http://www.w3.org/1999/xlink">
 <defs>
  <style type="text/css">
   <![CDATA[
    .fil0 {fill:#FEFEFE}
    .fil1 {fill:#C3CACF}
   ]]>
  </style>
 </defs>
 <g id="Layer_x0020_1">
  <metadata id="CorelCorpID_0Corel-Layer"/>
  <g>
   <path class="fil0" d="M139 0l-114 0c-14,0 -25,11 -25,25l0 59c0,14 11,25 25,25l114 0c14,0 25,-11 25,-25l0 -59c0,-14 -11,-25 -25,-25l0 0zm14 94l-3 2c-1,2 -4,2 -5,0l-35 -36 -23 23 -2 3c-1,0 -2,1 -3,1 -1,0 -2,-1 -3,-1l-2 -3 -22 -22 -36 34c-1,2 -4,2 -5,0l-3 -2c-1,-2 -1,-4 0,-5l36 -35 -32 -32c-1,-1 -1,-3 0,-5l3 -2c1,-2 4,-2 5,0l59 59 59 -59c1,-2 4,-2 5,0l3 2c1,2 1,4 0,5l-31 31 35 37c1,1 1,3 0,5l0 0zm0 0l0 0 0 0z"/>
  </g>
  <g>
   <path class="fil1" d="M139 205l-114 0c-14,0 -25,11 -25,25l0 59c0,14 11,25 25,25l114 0c14,0 25,-11 25,-25l0 -59c0,-14 -11,-25 -25,-25l0 0zm14 94l-3 2c-1,2 -4,2 -5,0l-35 -36 -23 23 -2 3c-1,0 -2,1 -3,1 -1,0 -2,-1 -3,-1l-2 -3 -22 -22 -36 34c-1,2 -4,2 -5,0l-3 -2c-1,-2 -1,-4 0,-5l36 -35 -32 -32c-1,-1 -1,-3 0,-5l3 -2c1,-2 4,-2 5,0l59 59 59 -59c1,-2 4,-2 5,0l3 2c1,2 1,4 0,5l-31 31 35 37c1,1 1,3 0,5l0 0zm0 0l0 0 0 0z"/>
  </g>
 </g>
</svg>
