<?xml version="1.0" encoding="UTF-8"?>
<!DOCTYPE svg PUBLIC "-//W3C//DTD SVG 1.1//EN" "http://www.w3.org/Graphics/SVG/1.1/DTD/svg11.dtd">
<!-- Creator: CorelDRAW X7 -->
<svg xmlns="http://www.w3.org/2000/svg" xml:space="preserve" width="0.160063in" height="0.374752in" version="1.1" style="shape-rendering:geometricPrecision; text-rendering:geometricPrecision; image-rendering:optimizeQuality; fill-rule:evenodd; clip-rule:evenodd"
viewBox="0 0 167 390"
 xmlns:xlink="http://www.w3.org/1999/xlink">
 <defs>
  <style type="text/css">
   <![CDATA[
    .fil0 {fill:#FEFEFE}
    .fil1 {fill:#C3CACF}
   ]]>
  </style>
 </defs>
 <g id="Layer_x0020_1">
  <metadata id="CorelCorpID_0Corel-Layer"/>
  <g id="_851672801376">
   <path class="fil0" d="M51 153c4,12 15,21 29,21 13,0 25,-9 29,-21l-29 0 -29 0z"/>
   <g>
    <path class="fil0" d="M127 53c-2,-12 -1,-3 -2,-15 -1,-25 -20,-38 -45,-38 -26,0 -45,13 -46,38 -1,12 0,3 -2,15 -4,30 -32,47 -32,79 0,3 0,7 1,10l49 0 -49 0 0 0 158 0c0,-3 0,-7 0,-10 0,-32 -28,-49 -32,-79l0 0zm0 0l0 0 0 0z"/>
   </g>
  </g>
  <g>
   <path class="fil1" d="M51 369c4,13 15,21 29,21 13,0 25,-8 29,-21l-29 0 -29 0zm0 0l0 0 0 0z"/>
   <g>
    <path class="fil1" d="M127 270c-2,-12 -1,-3 -2,-15 -1,-25 -20,-38 -45,-38 -26,0 -45,13 -46,38 -1,12 0,3 -2,15 -4,30 -32,47 -32,79 0,3 0,7 1,10l166 0 -166 0 0 0 158 0c0,-3 0,-7 0,-10 0,-32 -28,-49 -32,-79l0 0zm0 0l0 0 0 0z"/>
   </g>
  </g>
 </g>
</svg>
