<?xml version="1.0" encoding="UTF-8"?>
<!DOCTYPE svg PUBLIC "-//W3C//DTD SVG 1.1//EN" "http://www.w3.org/Graphics/SVG/1.1/DTD/svg11.dtd">
<!-- Creator: CorelDRAW X7 -->
<svg xmlns="http://www.w3.org/2000/svg" xml:space="preserve" width="0.166185in" height="0.371913in" version="1.1" style="shape-rendering:geometricPrecision; text-rendering:geometricPrecision; image-rendering:optimizeQuality; fill-rule:evenodd; clip-rule:evenodd"
viewBox="0 0 166 372"
 xmlns:xlink="http://www.w3.org/1999/xlink">
 <defs>
  <style type="text/css">
   <![CDATA[
    .fil0 {fill:#FEFEFE}
    .fil1 {fill:#C3CACF}
   ]]>
  </style>
 </defs>
 <g id="Layer_x0020_1">
  <metadata id="CorelCorpID_0Corel-Layer"/>
  <g id="_851676284784">
   <g>
    <path class="fil0" d="M127 143c0,-2 0,-3 0,-5 0,-1 0,-1 0,-2 -1,-1 -1,-2 -1,-3 0,0 0,-1 0,-1 -1,-1 -1,-2 -1,-3 0,-1 -1,-1 -1,-2 0,-1 0,-1 -1,-2 0,-1 0,-1 0,-2 -1,-1 -1,-2 -1,-2 -1,-1 -1,-2 -1,-2 -1,-1 -1,-2 -1,-2 -1,-1 -1,-2 -2,-2 0,-1 0,-1 -1,-2 0,-1 -1,-1 -1,-2 0,0 -1,-1 -1,-2 -1,0 -1,-1 -2,-1 0,-1 -1,-2 -1,-2 -1,-1 -1,-1 -2,-2 0,0 -1,-1 -1,-1 -1,-1 -1,-1 -2,-2 0,0 -1,-1 -1,-1 -1,-1 -2,-1 -2,-2 -1,0 -1,-1 -2,-1 -1,-1 -1,-1 -2,-1 0,-1 -1,-1 -2,-2 0,0 -1,0 -1,-1 -1,0 -2,-1 -2,-1 -1,0 -2,-1 -2,-1 -1,0 -2,-1 -2,-1 -1,0 -2,-1 -2,-1 0,0 0,0 -1,0 -1,0 -2,-1 -4,-1 -6,-3 -13,-4 -20,-4 -35,0 -64,29 -64,64l0 7c20,6 42,9 64,9 22,0 43,-3 64,-9l0 -4 0 -3c0,-2 0,-4 -1,-5l0 0zm0 0l0 0 0 0z"/>
   </g>
   <g>
    <path class="fil0" d="M166 134c-2,-22 -17,-41 -37,-47 -5,-2 -11,-3 -17,-3 -5,0 -10,0 -15,2 21,11 35,32 37,56 1,2 1,4 1,6l0 2c10,-1 21,-3 31,-6l0 -6c0,-1 0,-3 0,-4l0 0zm0 0l0 0 0 0z"/>
   </g>
   <g>
    <path class="fil0" d="M93 58c0,0 1,0 1,-1 0,0 1,-1 1,-2 0,0 1,0 1,0 0,-1 1,-2 1,-3 0,-1 1,-1 1,-1 0,-1 0,-2 1,-3 0,0 0,0 0,-1 0,-1 1,-2 1,-3 0,0 0,0 0,0 0,-1 0,-2 1,-3 0,-1 0,-1 0,-1 0,-1 0,-3 0,-4 0,-4 -1,-9 -3,-13 0,-1 -1,-2 -1,-3 0,0 0,0 0,-1 -1,0 -1,-1 -2,-2 0,0 0,0 0,0 0,0 0,0 0,0 -6,-10 -18,-17 -31,-17 -21,0 -37,16 -37,36 0,20 16,36 37,36 5,0 10,-1 14,-2 4,-2 7,-4 10,-7 0,0 0,0 0,0 0,0 1,0 1,0 1,-1 3,-3 4,-5l0 0zm0 0l0 0 0 0z"/>
   </g>
   <g>
    <path class="fil0" d="M141 32c-4,-12 -16,-20 -29,-20 -4,0 -7,1 -11,2 2,2 3,4 4,7 2,5 3,10 3,15 0,9 -3,17 -8,25 -2,2 -4,5 -6,7 5,4 11,6 18,6 4,0 8,-1 12,-2 11,-5 19,-16 19,-29 0,-4 0,-8 -2,-11l0 0zm0 0l0 0 0 0z"/>
   </g>
  </g>
  <g>
   <g>
    <path class="fil1" d="M127 351c0,-2 0,-3 0,-5 0,0 0,-1 0,-1 -1,-1 -1,-2 -1,-3 0,-1 0,-1 0,-2 -1,-1 -1,-2 -1,-3 0,0 -1,-1 -1,-2 0,0 0,-1 -1,-2 0,-1 0,-1 0,-2 -1,-1 -1,-1 -1,-2 -1,-1 -1,-1 -1,-2 -1,-1 -1,-1 -1,-2 -1,-1 -1,-1 -2,-2 0,-1 0,-1 -1,-2 0,0 -1,-1 -1,-2 0,0 -1,-1 -1,-1 -1,-1 -1,-2 -2,-2 0,-1 -1,-1 -1,-2 -1,0 -1,-1 -2,-1 0,-1 -1,-2 -1,-2 -1,-1 -1,-1 -2,-2 0,0 -1,-1 -1,-1 -1,-1 -2,-1 -2,-2 -1,0 -1,0 -2,-1 -1,0 -1,-1 -2,-1 0,-1 -1,-1 -2,-1 0,-1 -1,-1 -1,-2 -1,0 -2,0 -2,-1 -1,0 -2,0 -2,-1 -1,0 -2,0 -2,-1 -1,0 -2,0 -2,-1 0,0 0,0 -1,0 -1,0 -2,-1 -4,-1 -6,-2 -13,-4 -20,-4 -35,0 -64,29 -64,64l0 7c20,6 42,9 64,9 22,0 43,-3 64,-9l0 -4 0 -3c0,-2 0,-3 -1,-5l0 0zm0 0l0 0 0 0z"/>
   </g>
   <g>
    <path class="fil1" d="M166 342c-2,-22 -17,-40 -37,-47 -5,-2 -11,-3 -17,-3 -5,0 -10,1 -15,2 21,11 35,32 37,56 1,2 1,4 1,6l0 2c10,-1 21,-3 31,-5l0 -7c0,-1 0,-3 0,-4l0 0zm0 0l0 0 0 0z"/>
   </g>
   <g>
    <path class="fil1" d="M93 266c0,0 1,0 1,0 0,-1 1,-2 1,-3 0,0 1,0 1,0 0,-1 1,-2 1,-3 0,0 1,-1 1,-1 0,-1 0,-2 1,-2 0,-1 0,-1 0,-1 0,-1 1,-2 1,-3 0,-1 0,-1 0,-1 0,-1 0,-2 1,-3 0,0 0,-1 0,-1 0,-1 0,-2 0,-4 0,-4 -1,-9 -3,-13 0,-1 -1,-2 -1,-2 0,-1 0,-1 0,-1 -1,-1 -1,-2 -2,-2 0,0 0,-1 0,-1 0,0 0,0 0,0 -6,-10 -18,-17 -31,-17 -21,0 -37,16 -37,36 0,20 16,37 37,37 5,0 10,-1 14,-3 4,-2 7,-4 10,-6 0,0 0,0 0,0 0,0 1,-1 1,-1 1,-1 3,-3 4,-5l0 0zm0 0l0 0 0 0z"/>
   </g>
   <g>
    <path class="fil1" d="M141 240c-4,-11 -16,-19 -29,-19 -4,0 -7,0 -11,1 2,2 3,5 4,7 2,5 3,10 3,16 0,8 -3,17 -8,24 -2,3 -4,5 -6,7 5,4 11,6 18,6 4,0 8,-1 12,-2 11,-5 19,-16 19,-29 0,-4 0,-7 -2,-11l0 0zm0 0l0 0 0 0z"/>
   </g>
  </g>
 </g>
</svg>
