<svg width="20" height="40" xmlns="http://www.w3.org/2000/svg">

 <g>
  <title>background</title>
  <rect fill="none" id="canvas_background" height="402" width="582" y="-1" x="-1"/>
 </g>
 <g>
  <title>Layer 1</title>
  <path id="svg_1" d="m15.958,7.371l0,-5.371l-12,0l0,5.38c-1.117,0.232 -1.958,1.223 -1.958,2.41l0,5.743c0,1.359 1.102,2.460999 2.461,2.460999l11.08,0c1.358999,0 2.462,-1.101999 2.462,-2.460999l0,-5.743c0,-1.216 -0.882999,-2.219 -2.041,-2.419m-11,-4.371l10,0l0,1l-10,0l0,-1m0,2l10,0l0,1l-10,0l0,-1m0,2l10,0l0,1l-10,0l0,-1m1.98,3l-1,-1l8.020001,0l-1,1l-6.02,0m5.02,1l-1,1l-2.02,0l-1,-1l4.02,0m4.928,5.466999l-0.250999,0.251001c-0.138,0.138 -0.362001,0.138 -0.5,0l-3.385001,-3.543l-2.25,2.25l-0.250999,0.250999c-0.069,0.069 -0.159,0.103001 -0.251,0.103001c-0.09,0 -0.181,-0.034 -0.25,-0.103001l-0.250999,-0.250999l-2.136,-2.135999l-3.497,3.339998c-0.139,0.139 -0.363,0.139 -0.501,0l-0.25,-0.25c-0.139,-0.139 -0.139,-0.362 0,-0.5l3.497,-3.341l-3.123,-3.124001c-0.138,-0.139 -0.138,-0.362 0,-0.5l0.25,-0.250999c0.139,-0.139 0.363,-0.139 0.501,0l5.76,5.761001l5.762,-5.761001c0.138,-0.139 0.361001,-0.139 0.501,0l0.249001,0.250999c0.139999,0.138 0.139999,0.362 0,0.5l-3.010001,3.01l3.385001,3.543c0.137999,0.138 0.137999,0.363 0.000999,0.499999" fill="#ffffff"/>
  <path id="svg_2" d="m15.958,27.238001l0,-5.369999l-12,0l0,5.379999c-1.117,0.232 -1.958,1.223 -1.958,2.41l0,5.742001c0,1.359001 1.102,2.460999 2.461,2.460999l11.08,0c1.358999,0 2.462,-1.101997 2.462,-2.460999l0,-5.742001c0,-1.216 -0.882999,-2.219 -2.041,-2.42m-11,-4.369999l10,0l0,1l-10,0l0,-1m0,2l10,0l0,1l-10,0l0,-1m0,2l10,0l0,1l-10,0l0,-1m1.98,3l-1,-1l8.020001,0l-1,1l-6.02,0m5.02,1l-1,1l-2.02,0l-1,-1l4.02,0m4.928,5.468l-0.250999,0.25c-0.138,0.139 -0.362001,0.139 -0.5,0l-3.385001,-3.543003l-2.25,2.25l-0.250999,0.251003c-0.069,0.069 -0.159,0.102997 -0.251,0.102997c-0.09,0 -0.181,-0.032997 -0.25,-0.102997l-0.250999,-0.251003l-2.136,-2.136997l-3.497,3.341c-0.139,0.139999 -0.363,0.139999 -0.501,0l-0.25,-0.25c-0.139,-0.139 -0.139,-0.362 0,-0.500999l3.497,-3.341l-3.123,-3.123001c-0.138,-0.139 -0.138,-0.362001 0,-0.501001l0.25,-0.25c0.139,-0.139 0.363,-0.139 0.501,0l5.76,5.76l5.762,-5.76c0.138,-0.139 0.361001,-0.139 0.501,0l0.249001,0.25c0.139999,0.139 0.139999,0.362001 0,0.501001l-3.010001,3.009998l3.385001,3.543003c0.137999,0.137997 0.137999,0.362 0.000999,0.500999" fill="#fee72c"/>
 </g>
</svg>