<svg width="20" height="40" xmlns="http://www.w3.org/2000/svg">

 <g>
  <title>background</title>
  <rect fill="none" id="canvas_background" height="402" width="582" y="-1" x="-1"/>
 </g>
 <g>
  <title>Layer 1</title>
  <path id="svg_1" d="m15.397,4.664l-11.07,0c-1.359,0 -2.461,1.102 -2.461,2.461l0,5.743c0,1.359 1.102,2.461 2.461,2.461l11.079999,0c1.359001,0 2.462,-1.102 2.462,-2.461l0,-5.743c-0.000999,-1.359 -1.102999,-2.461 -2.462999,-2.461m1.348999,9.139l-0.250999,0.250999c-0.138,0.138 -0.362,0.138 -0.5,0l-3.384999,-3.543l-2.25,2.25l-0.251,0.251c-0.069,0.069 -0.159,0.103 -0.251,0.103c-0.089999,0 -0.181,-0.033999 -0.25,-0.103l-0.250999,-0.251l-2.136,-2.136l-3.497,3.34c-0.139,0.139 -0.363,0.139 -0.501,0l-0.25,-0.25c-0.139,-0.139 -0.139,-0.362 0,-0.5l3.497,-3.341001l-3.122,-3.124c-0.138,-0.139 -0.138,-0.362 0,-0.5l0.25,-0.251c0.139,-0.139 0.363,-0.139 0.501,0l5.76,5.761l5.762,-5.761c0.138,-0.139 0.361,-0.139 0.501,0l0.248999,0.251c0.140001,0.138 0.140001,0.362 0,0.5l-3.009999,3.01l3.384999,3.543c0.138,0.138 0.138,0.363 0,0.5" fill="#ffffff"/>
  <path id="svg_2" d="m15.397,24.671l-11.07,0c-1.359,0 -2.461,1.102001 -2.461,2.461l0,5.743c0,1.359001 1.102,2.462002 2.461,2.462002l11.079999,0c1.359001,0 2.462,-1.103001 2.462,-2.462002l0,-5.743c-0.000999,-1.360001 -1.102999,-2.461 -2.462999,-2.461m1.348999,9.139002l-0.250999,0.251999c-0.138,0.138 -0.362,0.138 -0.5,0l-3.384999,-3.543001l-2.25,2.249002l-0.251,0.250999c-0.069,0.068001 -0.159,0.104 -0.251,0.104c-0.089999,0 -0.181,-0.035 -0.25,-0.104l-0.250999,-0.250999l-2.136,-2.136002l-3.497,3.34c-0.139,0.139 -0.363,0.139 -0.501,0l-0.25,-0.25c-0.139,-0.139 -0.139,-0.362 0,-0.5l3.497,-3.342001l-3.123,-3.122999c-0.138,-0.139 -0.138,-0.362 0,-0.5l0.25,-0.252001c0.139,-0.139 0.363,-0.139 0.501,0l5.76,5.762001l5.762,-5.762001c0.138,-0.139 0.361,-0.139 0.500999,0l0.249001,0.252001c0.139999,0.138 0.139999,0.361 0,0.5l-3.009999,3.01l3.384999,3.543001c0.139,0.138 0.139,0.362999 0.000999,0.5" fill="#fee72c"/>
 </g>
</svg>