<svg width="20" height="40" xmlns="http://www.w3.org/2000/svg">
 <g>
  <title>background</title>
  <rect fill="none" id="canvas_background" height="42" width="22" y="-1" x="-1"/>
 </g>

 <g>
  <title>Layer 1</title>
  <g id="Search">
   <path id="svg_1" fill-rule="evenodd" clip-rule="evenodd" fill="#FFFFFF" d="m17.714596,15.796284l-3.564476,-3.564411c-0.018942,-0.018944 -0.041162,-0.032181 -0.060956,-0.049816c0.701367,-1.063923 1.110719,-2.337471 1.110719,-3.707047c0,-3.725599 -3.020162,-6.745754 -6.745685,-6.745754s-6.745687,3.020155 -6.745687,6.745686c0,3.725464 3.020095,6.745686 6.745618,6.745686c1.369643,0 2.643122,-0.409351 3.707046,-1.110718c0.017634,0.019722 0.030805,0.041943 0.049756,0.060894l3.56454,3.564537c0.535461,0.535404 1.403595,0.535404 1.939125,0c0.535404,-0.535469 0.535404,-1.403595 0,-1.939056zm-9.260398,-2.914165c-2.434083,0 -4.407235,-1.973152 -4.407235,-4.407177c0,-2.434082 1.973211,-4.407234 4.407235,-4.407234c2.433954,0 4.407175,1.973209 4.407175,4.407234c-0.000009,2.434025 -1.973221,4.407177 -4.407175,4.407177z"/>
  </g>
  <g id="svg_2"/>
  <g id="svg_3"/>
  <g id="svg_4"/>
  <g id="svg_5"/>
  <g id="svg_6"/>
  <g id="svg_7"/>
  <g id="svg_8"/>
  <g id="svg_9"/>
  <g id="svg_10"/>
  <g id="svg_11"/>
  <g id="svg_12"/>
  <g id="svg_13"/>
  <g id="svg_14"/>
  <g id="svg_15"/>
  <g id="svg_16"/>
  <g id="svg_18">
   <path id="svg_17" fill-rule="evenodd" clip-rule="evenodd" fill="#fee72c" d="m17.714596,35.796284l-3.564476,-3.564411c-0.018942,-0.018944 -0.041162,-0.032181 -0.060956,-0.049816c0.701367,-1.063923 1.110719,-2.337471 1.110719,-3.707047c0,-3.725599 -3.020162,-6.745754 -6.745685,-6.745754s-6.745687,3.020155 -6.745687,6.745686c0,3.725464 3.020095,6.745686 6.745618,6.745686c1.369643,0 2.643122,-0.409351 3.707046,-1.110718c0.017634,0.019722 0.030805,0.041943 0.049756,0.060894l3.56454,3.564537c0.535461,0.535404 1.403595,0.535404 1.939125,0c0.535404,-0.535469 0.535404,-1.403595 0,-1.939056zm-9.260398,-2.914165c-2.434083,0 -4.407235,-1.973152 -4.407235,-4.407177c0,-2.434082 1.973211,-4.407234 4.407235,-4.407234c2.433954,0 4.407175,1.973209 4.407175,4.407234c-0.000009,2.434025 -1.973221,4.407177 -4.407175,4.407177z"/>
  </g>
 </g>
</svg>