<svg width="20" height="40" xmlns="http://www.w3.org/2000/svg">

 <g>
  <title>background</title>
  <rect fill="none" id="canvas_background" height="402" width="582" y="-1" x="-1"/>
 </g>
 <g>
  <title>Layer 1</title>
  <g id="svg_1" fill="#c3cacf">
   <ellipse fill="#ffffff" id="svg_2" ry="3.533" rx="3.611" cy="5.532" cx="9.917"/>
   <path fill="#ffffff" id="svg_3" d="m9.916,10.213c-3.443,0 -6.234,2.792 -6.234,6.235l0,0.707001c1.988,0.531 4.078,0.813999 6.235,0.813999c2.155,0 4.245,-0.282999 6.233999,-0.813999l0,-0.707001c0,-3.443 -2.791999,-6.235 -6.234999,-6.235"/>
  </g>
  <g id="svg_4" fill="#5b646a">
   <ellipse fill="#fee72c" id="svg_5" ry="3.532" rx="3.611" cy="25.532" cx="9.917"/>
   <path fill="#fee72c" id="svg_6" d="m9.916,30.209999c-3.443,0 -6.234,2.792 -6.234,6.235001l0,0.705997c1.988,0.531002 4.078,0.814003 6.235,0.814003c2.155,0 4.245,-0.283001 6.233999,-0.814003l0,-0.705997c0,-3.443001 -2.791999,-6.235001 -6.234999,-6.235001"/>
  </g>
 </g>
</svg>