<svg width="20" height="40" xmlns="http://www.w3.org/2000/svg">

 <g>
  <title>background</title>
  <rect fill="none" id="canvas_background" height="402" width="582" y="-1" x="-1"/>
 </g>
 <g>
  <title>Layer 1</title>
  <g id="svg_1" fill="#c3cacf">
   <path fill="#ffffff" id="svg_2" d="m14.262,15.694c-0.012,-0.149 -0.03,-0.298 -0.055,-0.444c-0.007,-0.05 -0.019,-0.1 -0.026999,-0.15c-0.018001,-0.095 -0.034,-0.191 -0.057,-0.284c-0.014,-0.059 -0.031,-0.116 -0.047,-0.174c-0.021,-0.083 -0.042,-0.167 -0.067,-0.249001c-0.02,-0.061999 -0.043,-0.122 -0.063,-0.181999c-0.026,-0.077001 -0.052,-0.153001 -0.081,-0.229c-0.025,-0.062 -0.051,-0.122001 -0.077,-0.183001c-0.03,-0.071 -0.062,-0.142 -0.095,-0.212c-0.028,-0.061 -0.059,-0.121 -0.091,-0.181c-0.034,-0.067 -0.068,-0.134 -0.106,-0.2c-0.034,-0.06 -0.068,-0.119 -0.104,-0.177c-0.04,-0.063001 -0.078,-0.126 -0.118,-0.188001c-0.039001,-0.058 -0.078,-0.115 -0.116,-0.171c-0.044,-0.06 -0.086,-0.118 -0.13,-0.176c-0.043,-0.056001 -0.085999,-0.110001 -0.13,-0.165c-0.046,-0.056001 -0.092,-0.109 -0.139,-0.163c-0.047999,-0.053 -0.095,-0.106 -0.144,-0.157001c-0.047999,-0.051 -0.098,-0.101 -0.148,-0.151c-0.05,-0.051 -0.102,-0.101 -0.154,-0.15c-0.052,-0.048 -0.104,-0.093 -0.156,-0.139c-0.054999,-0.048 -0.108999,-0.095 -0.165999,-0.14c-0.054,-0.043 -0.110001,-0.085 -0.165,-0.127c-0.059,-0.043 -0.116,-0.088 -0.177,-0.129c-0.057,-0.04 -0.113,-0.077001 -0.173,-0.114c-0.061,-0.04 -0.122,-0.081 -0.186,-0.118c-0.06,-0.035 -0.12,-0.067 -0.181,-0.101c-0.064,-0.036 -0.129001,-0.073 -0.195001,-0.107c-0.061999,-0.031 -0.125,-0.059 -0.188,-0.087c-0.068,-0.032 -0.134,-0.064 -0.203,-0.092999c-0.002,-0.001 -0.004,-0.002001 -0.006,-0.003c-0.128,-0.053 -0.259,-0.104 -0.392,-0.149c-0.619,-0.21 -1.283,-0.325 -1.973,-0.325c-3.386001,0 -6.131001,2.743999 -6.131001,6.131001l0,0.693998c1.956,0.522001 4.01,0.801001 6.131001,0.801001c2.120999,0 4.174999,-0.278999 6.131,-0.801001l0,-0.427999l0,-0.267c0,-0.17 -0.007,-0.341999 -0.021,-0.511999"/>
   <path fill="#ffffff" id="svg_3" d="m17.961,14.823c-0.174,-2.101 -1.593,-3.85 -3.519,-4.503c-0.527,-0.179 -1.093,-0.276999 -1.678,-0.276999c-0.479,0 -0.941,0.066 -1.383,0.186999c1.997001,1.078 3.35,3.1 3.54,5.410001c0.016001,0.191 0.024,0.383 0.024,0.568999l0,0.207001c1.037001,-0.112 2.051001,-0.301001 3.030001,-0.564l0,-0.591001c0.000999,-0.148 -0.004,-0.294 -0.017,-0.438"/>
   <path fill="#ffffff" id="svg_4" d="m10.974,7.578c0.016,-0.021 0.032,-0.042 0.048,-0.063c0.057,-0.076 0.11,-0.155 0.16,-0.235c0.009,-0.014 0.019,-0.026 0.026999,-0.041c0.055,-0.093 0.106,-0.189 0.154,-0.288c0.012,-0.023 0.021,-0.046 0.032001,-0.069c0.037,-0.081 0.07,-0.164 0.101,-0.248c0.009,-0.025 0.019,-0.049 0.026,-0.074c0.035999,-0.104 0.066,-0.209 0.091,-0.317c0.005,-0.019 0.008,-0.038 0.012,-0.057c0.019,-0.092 0.036,-0.185 0.048,-0.279c0.004,-0.03 0.007999,-0.061 0.011,-0.091c0.011,-0.112 0.019,-0.226 0.019,-0.342c0,-0.444 -0.086,-0.866 -0.24,-1.255c-0.037001,-0.095 -0.081,-0.188 -0.126,-0.278c-0.014,-0.026 -0.028,-0.051 -0.041,-0.077c-0.037,-0.067 -0.075999,-0.134 -0.115999,-0.199c-0.008,-0.013 -0.016001,-0.027 -0.022,-0.041c0,0 -0.002,0 -0.002,0.001c-0.629,-0.975 -1.738,-1.625 -3,-1.625c-1.962,0 -3.551,1.555 -3.551,3.475c0,1.917 1.589,3.472 3.551,3.472c0.474,0 0.925,-0.089999 1.338,-0.254999c0.372,-0.148001 0.71,-0.357 1.009999,-0.612c0,0.001 0,0.001 0.001,0.002c0.009,-0.007999 0.017,-0.016 0.025,-0.024c0.166,-0.145999 0.317,-0.306 0.452001,-0.48"/>
   <path fill="#ffffff" id="svg_5" d="m15.581,5.06c-0.438001,-1.104 -1.533,-1.888 -2.816,-1.888c-0.353001,0 -0.689,0.06 -1,0.168c0.122999,0.201 0.23,0.414 0.318999,0.636c0.190001,0.479 0.286,0.983 0.286,1.5c0,0.839 -0.256,1.65 -0.739,2.34c-0.183,0.261 -0.396,0.499 -0.629999,0.709c0.497999,0.351001 1.106999,0.558001 1.768,0.558001c0.401999,0 0.785,-0.078 1.138,-0.218c1.104,-0.44 1.882,-1.5 1.882,-2.738c-0.000999,-0.377 -0.072,-0.736 -0.204,-1.067"/>
  </g>
  <g id="svg_6" fill="#5b646a">
   <path fill="#fee72c" id="svg_7" d="m14.262,35.693001c-0.012,-0.148003 -0.03,-0.297001 -0.055,-0.443001c-0.007,-0.050999 -0.019,-0.101002 -0.026999,-0.150002c-0.018001,-0.095997 -0.034,-0.190998 -0.057,-0.283997c-0.014,-0.059002 -0.031,-0.116001 -0.047,-0.175003c-0.021,-0.082001 -0.042,-0.166 -0.067,-0.247997c-0.02,-0.062 -0.043,-0.121002 -0.063,-0.182003c-0.026,-0.076 -0.052,-0.153 -0.081,-0.229c-0.025,-0.062 -0.051,-0.121998 -0.077,-0.183998c-0.03,-0.07 -0.062,-0.142002 -0.095,-0.212002c-0.028,-0.060997 -0.059,-0.119999 -0.091,-0.181c-0.034,-0.065998 -0.068,-0.134998 -0.106,-0.198997c-0.034,-0.061001 -0.068,-0.118999 -0.104,-0.178001c-0.04,-0.063 -0.078,-0.125999 -0.118,-0.188c-0.039001,-0.059002 -0.078,-0.115002 -0.116,-0.172001c-0.044,-0.059998 -0.086,-0.117001 -0.13,-0.175999c-0.043,-0.056999 -0.085999,-0.110001 -0.13,-0.165001c-0.046,-0.056 -0.092,-0.107998 -0.139,-0.162998c-0.047999,-0.053001 -0.095,-0.105003 -0.144,-0.157001c-0.047999,-0.052 -0.098,-0.101 -0.148,-0.150999c-0.05,-0.051001 -0.102,-0.101002 -0.154,-0.149c-0.052,-0.048 -0.104,-0.093 -0.156,-0.139c-0.054999,-0.048 -0.108999,-0.095001 -0.165999,-0.140001c-0.054,-0.042999 -0.110001,-0.084999 -0.165,-0.126999c-0.059,-0.043001 -0.116,-0.088001 -0.177,-0.129c-0.057,-0.040001 -0.113,-0.076 -0.173,-0.114c-0.061,-0.040001 -0.122,-0.081001 -0.186,-0.118c-0.06,-0.035 -0.12,-0.067001 -0.181,-0.101c-0.064,-0.036001 -0.129001,-0.073 -0.195001,-0.106001c-0.061999,-0.031 -0.125,-0.059 -0.188,-0.087999c-0.068,-0.031 -0.134,-0.064001 -0.203,-0.094c-0.002,0 -0.004,-0.002001 -0.006,-0.002001c-0.128,-0.052999 -0.259,-0.104 -0.392,-0.148001c-0.619,-0.210999 -1.283,-0.324999 -1.973,-0.324999c-3.386001,0 -6.131001,2.743999 -6.131001,6.132l0,0.693001c1.956,0.521999 4.01,0.801998 6.131001,0.801998c2.120999,0 4.174999,-0.278999 6.131,-0.801998l0,-0.428001l0,-0.265999c0,-0.172001 -0.007,-0.344002 -0.021,-0.514"/>
   <path fill="#fee72c" id="svg_8" d="m17.961,34.821999c-0.174,-2.100998 -1.593,-3.849998 -3.519,-4.501999c-0.527,-0.18 -1.093,-0.277 -1.678,-0.277c-0.479,0 -0.941,0.066 -1.383,0.187c1.997001,1.077 3.35,3.101002 3.54,5.41c0.016001,0.190002 0.024,0.382999 0.024,0.569l0,0.206001c1.037001,-0.112 2.051001,-0.302002 3.030001,-0.563l0,-0.592003c0.000999,-0.146999 -0.004,-0.292999 -0.017,-0.438"/>
   <path fill="#fee72c" id="svg_9" d="m10.974,27.577999c0.016,-0.021 0.032,-0.042999 0.048,-0.063c0.057,-0.076 0.11,-0.154999 0.16,-0.234999c0.009,-0.014 0.019,-0.025002 0.026999,-0.040001c0.055,-0.093 0.106,-0.188999 0.154,-0.288c0.012,-0.022999 0.021,-0.046 0.032001,-0.067999c0.037,-0.082001 0.07,-0.164001 0.101,-0.248001c0.009,-0.025 0.019,-0.049 0.026,-0.073999c0.035999,-0.104 0.066,-0.209 0.091,-0.316999c0.005,-0.019001 0.008,-0.038 0.012,-0.057001c0.019,-0.091999 0.036,-0.184999 0.048,-0.278999c0.004,-0.030001 0.007999,-0.061001 0.011,-0.091c0.011,-0.113001 0.019,-0.227001 0.019,-0.342001c0,-0.444 -0.086,-0.867001 -0.24,-1.256001c-0.037001,-0.094999 -0.081,-0.188 -0.126,-0.278c-0.014,-0.025999 -0.028,-0.050999 -0.041,-0.077c-0.037,-0.066 -0.075999,-0.133999 -0.115999,-0.198999c-0.008,-0.013 -0.016001,-0.027 -0.022,-0.040001c0,0.001001 -0.002,0.001001 -0.002,0.001001c-0.629,-0.977001 -1.738,-1.627001 -3,-1.627001c-1.962,0 -3.551,1.555 -3.551,3.475c0,1.917 1.589,3.472 3.551,3.472c0.474,0 0.925,-0.091 1.338,-0.255001c0.372,-0.147999 0.71,-0.357 1.009999,-0.612999c0,0.001999 0,0.001999 0.001,0.001999c0.009,-0.007999 0.017,-0.015999 0.025,-0.022999c0.166,-0.147001 0.317,-0.306 0.452001,-0.480001"/>
   <path fill="#fee72c" id="svg_10" d="m15.581,25.059999c-0.438001,-1.104 -1.533,-1.887999 -2.816,-1.887999c-0.353001,0 -0.689,0.059999 -1,0.167999c0.122999,0.200001 0.23,0.414 0.318999,0.636c0.190001,0.479 0.286,0.983 0.286,1.5c0,0.839001 -0.256,1.649 -0.739,2.34c-0.183,0.261999 -0.396,0.497999 -0.629999,0.709c0.497999,0.352001 1.106999,0.559 1.768,0.559c0.401999,0 0.785,-0.077999 1.138,-0.218c1.104,-0.439999 1.882,-1.500999 1.882,-2.737999c-0.000999,-0.377001 -0.072,-0.736 -0.204,-1.068001"/>
  </g>
 </g>
</svg>