<svg width="64" height="64" xmlns="http://www.w3.org/2000/svg">

 <g>
  <title>background</title>
  <rect fill="none" id="canvas_background" height="402" width="582" y="-1" x="-1"/>
 </g>
 <g>
  <title>Layer 1</title>
  <g id="Speech_x5F_Balloon_x5F_Empty">
   <g id="svg_1">
    <path id="svg_2" d="m60.844002,1l-19.688004,0c-1.188,0 -2.155998,0.925 -2.155998,2.062l0,19.666001c0,0.598 0.233002,1.160999 0.660999,1.59c0.427002,0.425999 0.992001,0.66 1.59,0.66c0.601002,0 1.165001,-0.234001 1.581001,-0.650002l4.947998,-4.777998c0.354,-0.354 0.825001,-0.549999 1.325001,-0.549999l11.737999,0c1.189003,-0.000002 2.157001,-0.925001 2.157001,-2.062002l0,-13.876c0,-1.137 -0.967999,-2.062 -2.155998,-2.062zm0.655998,15.938c0,0.311001 -0.294998,0.562 -0.655998,0.562l-11.739002,0c-0.899998,0 -1.749001,0.351999 -2.375999,0.979l-4.948002,4.778999c-0.285999,0.284 -0.772999,0.285 -1.059998,-0.001001c-0.144001,-0.146 -0.221001,-0.328999 -0.221001,-0.528999l0.000999,-12.727999l-0.000999,0l0,-6.938c0,-0.311 0.293999,-0.562 0.655998,-0.562l19.688004,0c0.361,0 0.655998,0.252 0.655998,0.562l0,13.876z" fill="#A2ACB3"/>
   </g>
  </g>
  <g id="svg_3">
   <path id="svg_4" d="m13.744,23.271c-0.183001,0 -0.367001,-0.066 -0.51,-0.200001l-10.239999,-9.510999c-2.655,-2.655001 -2.655,-6.945001 -0.02,-9.581c1.276999,-1.276 2.975999,-1.979 4.780999,-1.979s3.503,0.703 4.78,1.979c0.487,0.487 0.894,1.042 1.208,1.645c0.315,-0.603 0.722,-1.157 1.209,-1.645c1.277,-1.276 2.975,-1.979 4.781,-1.979c1.806,0 3.504,0.703 4.780001,1.979c2.636,2.636 2.636,6.926 0,9.562l-10.259001,9.529999c-0.143,0.134001 -0.327,0.200001 -0.509999,0.200001zm-5.989,-19.771c-1.405,0 -2.727,0.547 -3.721,1.54c-2.051,2.052 -2.051,5.39 0,7.44l9.709,9.018l9.729,-9.036999c2.031,-2.031 2.031,-5.369 -0.02,-7.421c-0.993,-0.993 -2.313999,-1.54 -3.719999,-1.54s-2.727001,0.547 -3.720001,1.54c-0.874999,0.874 -1.414999,2.032 -1.520999,3.261c-0.022,0.322001 -0.249001,0.604 -0.570001,0.683001c-0.358999,0.087 -0.726999,-0.094 -0.87,-0.435c-0.03,-0.072 -0.049,-0.153999 -0.056,-0.236l0,0c-0.104,-1.232 -0.644,-2.395 -1.521,-3.272c-0.993,-0.994 -2.313,-1.541 -3.719,-1.541z" fill="#A2ACB3"/>
  </g>
  <g id="Speech_x5F_Balloon_x5F_Empty_2_">
   <g id="svg_5">
    <path id="svg_6" d="m60.844002,38l-19.688004,0c-1.188,0 -2.155998,0.925999 -2.155998,2.062l0,19.666c0,0.598 0.233002,1.160999 0.660999,1.59c0.427002,0.425999 0.992001,0.66 1.59,0.66c0.601002,0 1.165001,-0.234001 1.581001,-0.650002l4.947998,-4.778c0.354,-0.354 0.825001,-0.549999 1.325001,-0.549999l11.737999,0c1.189003,0 2.157001,-0.924999 2.157001,-2.062l0,-13.875999c0,-1.136002 -0.967999,-2.062 -2.155998,-2.062zm0.655998,15.938c0,0.311001 -0.294998,0.562 -0.655998,0.562l-11.739002,0c-0.899998,0 -1.749001,0.352001 -2.375999,0.979l-4.948002,4.778999c-0.285999,0.284 -0.772999,0.285 -1.059998,-0.000999c-0.144001,-0.146 -0.221001,-0.329002 -0.221001,-0.528999l0.000999,-12.728001l-0.000999,0l0,-6.938c0,-0.311001 0.293999,-0.562 0.655998,-0.562l19.688004,0c0.361,0 0.655998,0.251999 0.655998,0.562l0,13.875999z" fill="#d93050"/>
   </g>
  </g>
  <g id="svg_7">
   <path id="svg_8" d="m13.744,60.271c-0.183001,0 -0.367001,-0.065998 -0.51,-0.200001l-10.239999,-9.510998c-2.655,-2.655003 -2.655,-6.945 -0.02,-9.581001c1.276999,-1.276001 2.975999,-1.979 4.780999,-1.979s3.503,0.702999 4.78,1.979c0.487,0.487 0.894,1.042 1.208,1.645c0.315,-0.603001 0.722,-1.157001 1.209,-1.645c1.277,-1.276001 2.975,-1.979 4.781,-1.979c1.806,0 3.504,0.702999 4.780001,1.979c2.636,2.636002 2.636,6.925999 0,9.562l-10.259001,9.529999c-0.143,0.134003 -0.327,0.200001 -0.509999,0.200001zm-5.989,-19.771c-1.405,0 -2.727,0.547001 -3.721,1.540001c-2.051,2.051998 -2.051,5.389999 0,7.439999l9.709,9.018002l9.729,-9.037003c2.031,-2.030998 2.031,-5.368999 -0.02,-7.420998c-0.993,-0.993 -2.313999,-1.540001 -3.719999,-1.540001s-2.727001,0.547001 -3.720001,1.540001c-0.874999,0.874001 -1.414999,2.031998 -1.520999,3.260998c-0.022,0.322002 -0.249001,0.604 -0.570001,0.683002c-0.358999,0.086998 -0.726999,-0.094002 -0.87,-0.435001c-0.03,-0.071999 -0.049,-0.153999 -0.056,-0.236l0,0c-0.104,-1.231998 -0.644,-2.395 -1.521,-3.271999c-0.993,-0.993999 -2.313,-1.541 -3.719,-1.541z" fill="#d93050"/>
  </g>
 </g>
</svg>