<?xml version="1.0" encoding="UTF-8"?>
<!DOCTYPE svg PUBLIC "-//W3C//DTD SVG 1.1//EN" "http://www.w3.org/Graphics/SVG/1.1/DTD/svg11.dtd">
<!-- Creator: CorelDRAW X7 -->
<svg xmlns="http://www.w3.org/2000/svg" xml:space="preserve" width="0.129886in" height="0.374646in" version="1.1" style="shape-rendering:geometricPrecision; text-rendering:geometricPrecision; image-rendering:optimizeQuality; fill-rule:evenodd; clip-rule:evenodd"
viewBox="0 0 128 370"
 xmlns:xlink="http://www.w3.org/1999/xlink">
 <defs>
  <style type="text/css">
   <![CDATA[
    .fil0 {fill:#FEFEFE}
    .fil1 {fill:#C3CACF}
   ]]>
  </style>
 </defs>
 <g id="Layer_x0020_1">
  <metadata id="CorelCorpID_0Corel-Layer"/>
  <g id="_851682786912">
   <ellipse class="fil0" cx="64" cy="36" rx="37" ry="36"/>
   <path class="fil0" d="M64 84c-35,0 -64,29 -64,65l0 7c20,5 42,8 64,8 22,0 44,-3 64,-8l0 -7c0,-36 -29,-65 -64,-65z"/>
  </g>
  <g id="_851682786848">
   <ellipse class="fil1" cx="64" cy="242" rx="37" ry="36"/>
   <path class="fil1" d="M64 290c-35,0 -64,29 -64,64l0 7c20,6 42,9 64,9 22,0 44,-3 64,-9l0 -7c0,-35 -29,-64 -64,-64z"/>
  </g>
 </g>
</svg>
