<?xml version="1.0" encoding="UTF-8"?>
<!DOCTYPE svg PUBLIC "-//W3C//DTD SVG 1.1//EN" "http://www.w3.org/Graphics/SVG/1.1/DTD/svg11.dtd">
<!-- Creator: CorelDRAW X7 -->
<svg xmlns="http://www.w3.org/2000/svg" xml:space="preserve" width="0.645831in" height="0.635189in" version="1.1" style="shape-rendering:geometricPrecision; text-rendering:geometricPrecision; image-rendering:optimizeQuality; fill-rule:evenodd; clip-rule:evenodd"
viewBox="0 0 646 635"
 xmlns:xlink="http://www.w3.org/1999/xlink">
 <defs>
  <style type="text/css">
   <![CDATA[
    .fil1 {fill:#3E4095}
    .fil0 {fill:#A2ACB3}
   ]]>
  </style>
 </defs>
 <g id="Layer_x0020_1">
  <metadata id="CorelCorpID_0Corel-Layer"/>
  <g id="Speech_Balloon_Empty">
   <g>
    <path class="fil0" d="M623 0l-205 0c-12,0 -22,10 -22,21l0 205c0,7 2,12 7,17 4,4 10,7 16,7 7,0 12,-3 17,-7l51 -50c4,-3 9,-5 14,-5l122 0c13,0 23,-10 23,-22l0 -145c0,-11 -10,-21 -23,-21zm7 166c0,3 -3,6 -7,6l-122 0c-9,0 -18,4 -25,10l-51 50c-3,3 -8,3 -11,0 -2,-2 -3,-4 -3,-6l0 -132 0 0 0 -73c0,-3 4,-5 7,-5l205 0c4,0 7,2 7,5l0 145z"/>
   </g>
  </g>
  <g id="_400779249856">
   <path class="fil0" d="M133 232c-2,0 -4,-1 -6,-2l-106 -99c-28,-28 -28,-73 0,-100 13,-13 31,-21 49,-21 19,0 37,8 50,21 5,5 9,11 13,17 3,-6 7,-12 12,-17 14,-13 31,-21 50,-21 19,0 37,8 50,21 27,27 27,72 0,100l-107 99c-1,1 -3,2 -5,2zm-63 -206c-14,0 -28,6 -38,16 -22,21 -22,56 0,78l101 94 101 -95c21,-21 21,-56 0,-77 -10,-10 -24,-16 -39,-16 -15,0 -28,6 -39,16 -9,9 -14,21 -15,34 -1,3 -3,6 -6,7 -4,1 -8,-1 -9,-4 -1,-1 -1,-2 -1,-3l0 0c-1,-13 -7,-25 -16,-34 -10,-10 -24,-16 -39,-16z"/>
  </g>
  <g id="Speech_Balloon_Empty_2_">
   <g>
    <path class="fil1" d="M623 385l-205 0c-12,0 -22,10 -22,22l0 205c0,6 2,12 7,16 4,5 10,7 16,7 7,0 12,-2 17,-7l51 -49c4,-4 9,-6 14,-6l122 0c13,0 23,-10 23,-22l0 -144c0,-12 -10,-22 -23,-22zm7 166c0,4 -3,6 -7,6l-122 0c-9,0 -18,4 -25,10l-51 50c-3,3 -8,3 -11,0 -2,-1 -3,-3 -3,-5l0 -133 0 0 0 -72c0,-3 4,-6 7,-6l205 0c4,0 7,3 7,6l0 144z"/>
   </g>
  </g>
  <g id="_400779250048">
   <path class="fil1" d="M133 617c-2,0 -4,0 -6,-2l-106 -99c-28,-27 -28,-72 0,-100 13,-13 31,-20 49,-20 19,0 37,7 50,20 5,6 9,11 13,18 3,-7 7,-12 12,-18 14,-13 31,-20 50,-20 19,0 37,7 50,20 27,28 27,73 0,100l-107 99c-1,2 -3,2 -5,2zm-63 -206c-14,0 -28,6 -38,17 -22,21 -22,56 0,77l101 94 101 -94c21,-21 21,-56 0,-77 -10,-11 -24,-17 -39,-17 -15,0 -28,6 -39,17 -9,9 -14,21 -15,33 -1,4 -3,7 -6,8 -4,0 -8,-1 -9,-5 -1,-1 -1,-2 -1,-2l0 0c-1,-13 -7,-25 -16,-34 -10,-11 -24,-17 -39,-17z"/>
  </g>
 </g>
</svg>
